<svg width="199" height="96" viewBox="0 0 199 96" fill="none" xmlns="http://www.w3.org/2000/svg">
<path d="M131.24 70.3L132.7 71.27C134.86 72.71 137.39 73.48 139.98 73.48H166.33C169.03 73.48 171.66 72.65 173.87 71.1L193.68 57.21C196.77 55.05 197.87 50.99 196.3 47.56L183 18.47L170 5.47001L158.93 2.70001C155.98 1.96001 152.88 3.16001 151.19 5.69001L148.3 10.03C148.11 10.32 147.97 10.64 147.91 10.98L147.41 13.48C147.18 14.65 147.75 15.83 148.82 16.37L151.71 17.81C152.52 18.22 153.48 18.18 154.26 17.71L156.78 16.2C157.55 15.74 158.49 15.7 159.3 16.09L161.19 17.01C162.26 17.53 163.55 17.27 164.34 16.37C165.27 15.3 166.88 15.16 167.99 16.05L171.01 18.47L172.74 39.27C172.91 41.37 173.61 43.39 174.77 45.15C175.22 45.83 174.5 46.67 173.76 46.34L168.88 44.18C166.45 43.1 163.65 43.28 161.37 44.64L157.3 47.08C155.91 47.91 154.16 47.81 152.88 46.81L147.55 42.66C146.54 41.87 145.33 41.37 144.05 41.2L143.3 41.1C140.19 40.69 137.03 41.36 134.36 43L132 44.46V45.62C132 51.47 130.92 57.26 128.83 62.72C127.76 65.49 128.76 68.64 131.24 70.29V70.3Z" stroke="white" stroke-width="3" stroke-miterlimit="10"/>
<path d="M67.27 70.8L65.81 71.77C63.65 73.21 61.12 73.98 58.53 73.98H32.18C29.48 73.98 26.85 73.15 24.64 71.6L4.82999 57.71C1.73999 55.55 0.639987 51.49 2.20999 48.06L15.51 18.97L28.51 5.97001L39.58 3.20001C42.53 2.46001 45.63 3.66001 47.32 6.19001L50.21 10.53C50.4 10.82 50.54 11.14 50.6 11.48L51.1 13.98C51.33 15.15 50.76 16.33 49.69 16.87L46.8 18.31C45.99 18.72 45.03 18.68 44.25 18.21L41.73 16.7C40.96 16.24 40.02 16.2 39.21 16.59L37.32 17.51C36.25 18.03 34.96 17.77 34.17 16.87C33.24 15.8 31.63 15.66 30.52 16.55L27.5 18.97L25.77 39.77C25.6 41.87 24.9 43.89 23.74 45.65C23.29 46.33 24.01 47.17 24.75 46.84L29.63 44.68C32.06 43.6 34.86 43.78 37.14 45.14L41.21 47.58C42.6 48.41 44.35 48.31 45.63 47.31L50.96 43.16C51.97 42.37 53.18 41.87 54.46 41.7L55.21 41.6C58.32 41.19 61.48 41.86 64.15 43.5L66.51 44.96V46.43C66.51 52.07 67.55 57.66 69.57 62.92L69.68 63.21C70.75 65.98 69.75 69.13 67.27 70.78V70.8Z" stroke="white" stroke-width="3" stroke-miterlimit="10"/>
<path d="M100 93.48C108.34 85.72 137.46 58.87 131 44.48C130.09 42.45 127.8 39.15 124 37.48C117.23 34.51 107.96 37.73 100 45.48L98 47.48C97 46.51 96 45.59 95 44.73C87.98 38.68 80.84 35.43 74.92 38.03C71.12 39.7 68.83 43 67.92 45.03C60.6 61.33 94.49 91.2 97 93.48C97.26 93.72 99.74 93.72 100 93.48Z" stroke="white" stroke-width="4" stroke-miterlimit="10"/>
</svg>
