<?xml version="1.0" encoding="UTF-8"?>
<svg id="Layer_2" data-name="Layer 2" xmlns="http://www.w3.org/2000/svg" viewBox="0 0 198.51 94.66">
  <defs>
    <style>
      .cls-1 {
        stroke-width: 3px;
      }

      .cls-1, .cls-2 {
        fill: none;
        stroke: #fff;
        stroke-miterlimit: 10;
      }

      .cls-2 {
        stroke-width: 4px;
      }
    </style>
  </defs>
  <g id="Layer_1-2" data-name="Layer 1">
    <g>
      <path class="cls-1" d="m131.24,69.3l1.46.97c2.16,1.44,4.69,2.21,7.28,2.21h26.35c2.7,0,5.33-.83,7.54-2.38l19.81-13.89c3.09-2.16,4.19-6.22,2.62-9.65l-13.3-29.09-13-13-11.07-2.77c-2.95-.74-6.05.46-7.74,2.99l-2.89,4.34c-.19.29-.33.61-.39.95l-.5,2.5c-.23,1.17.34,2.35,1.41,2.89l2.89,1.44c.81.41,1.77.37,2.55-.1l2.52-1.51c.77-.46,1.71-.5,2.52-.11l1.89.92c1.07.52,2.36.26,3.15-.64h0c.93-1.07,2.54-1.21,3.65-.32l3.02,2.42,1.73,20.8c.17,2.1.87,4.12,2.03,5.88h0c.45.68-.27,1.52-1.01,1.19l-4.88-2.16c-2.43-1.08-5.23-.9-7.51.46l-4.07,2.44c-1.39.83-3.14.73-4.42-.27l-5.33-4.15c-1.01-.79-2.22-1.29-3.5-1.46l-.75-.1c-3.11-.41-6.27.26-8.94,1.9l-2.36,1.46v1.16c0,5.85-1.08,11.64-3.17,17.1h0c-1.07,2.77-.07,5.92,2.41,7.57Z"/>
      <path class="cls-1" d="m67.27,69.8l-1.46.97c-2.16,1.44-4.69,2.21-7.28,2.21h-26.35c-2.7,0-5.33-.83-7.54-2.38l-19.81-13.89c-3.09-2.16-4.19-6.22-2.62-9.65l13.3-29.09,13-13,11.07-2.77c2.95-.74,6.05.46,7.74,2.99l2.89,4.34c.19.29.33.61.39.95l.5,2.5c.23,1.17-.34,2.35-1.41,2.89l-2.89,1.44c-.81.41-1.77.37-2.55-.1l-2.52-1.51c-.77-.46-1.71-.5-2.52-.11l-1.89.92c-1.07.52-2.36.26-3.15-.64h0c-.93-1.07-2.54-1.21-3.65-.32l-3.02,2.42-1.73,20.8c-.17,2.1-.87,4.12-2.03,5.88h0c-.45.68.27,1.52,1.01,1.19l4.88-2.16c2.43-1.08,5.23-.9,7.51.46l4.07,2.44c1.39.83,3.14.73,4.42-.27l5.33-4.15c1.01-.79,2.22-1.29,3.5-1.46l.75-.1c3.11-.41,6.27.26,8.94,1.9l2.36,1.46v1.47c0,5.64,1.04,11.23,3.06,16.49l.11.29c1.07,2.77.07,5.92-2.41,7.57Z"/>
      <path class="cls-2" d="m100,92.48c8.34-7.76,37.46-34.61,31-49-.91-2.03-3.2-5.33-7-7-6.77-2.97-16.04.25-24,8l-2,2c-1-.97-2-1.89-3-2.75-7.02-6.05-14.16-9.3-20.08-6.7-3.8,1.67-6.09,4.97-7,7-7.32,16.3,26.57,46.17,29.08,48.45.26.24,2.74.24,3,0Z"/>
    </g>
  </g>
</svg>