<?xml version="1.0" encoding="UTF-8"?><svg id="Layer_1" xmlns="http://www.w3.org/2000/svg" viewBox="0 0 800 800"><defs><style>.cls-1{fill:#fff;}.cls-2{fill:#6c9000;}.cls-3{fill:#005b00;}</style></defs><path class="cls-1" d="m400,799.5c-53.93,0-106.25-10.56-155.5-31.39-47.57-20.12-90.3-48.93-126.99-85.62s-65.5-79.41-85.62-126.99C11.06,506.25.5,453.93.5,400s10.56-106.25,31.39-155.5c20.12-47.57,48.93-90.3,85.62-126.99S196.92,52.02,244.5,31.89C293.75,11.06,346.07.5,400,.5s106.25,10.56,155.5,31.39c47.57,20.12,90.3,48.93,126.99,85.62s65.5,79.41,85.62,126.99c20.83,49.25,31.39,101.57,31.39,155.5s-10.56,106.25-31.39,155.5c-20.12,47.57-48.93,90.3-85.62,126.99s-79.41,65.5-126.99,85.62c-49.25,20.83-101.57,31.39-155.5,31.39Z"/><path d="m400,1c53.87,0,106.12,10.55,155.31,31.35,47.51,20.1,90.18,48.87,126.83,85.51,36.64,36.64,65.41,79.31,85.51,126.83,20.81,49.19,31.35,101.44,31.35,155.31s-10.55,106.12-31.35,155.31c-20.1,47.51-48.87,90.18-85.51,126.83s-79.31,65.41-126.83,85.51c-49.19,20.81-101.44,31.35-155.31,31.35s-106.12-10.55-155.31-31.35c-47.51-20.1-90.18-48.87-126.83-85.51-36.64-36.64-65.41-79.31-85.51-126.83C11.55,506.12,1,453.87,1,400s10.55-106.12,31.35-155.31c20.1-47.51,48.87-90.18,85.51-126.83,36.64-36.64,79.31-65.41,126.83-85.51C293.88,11.55,346.13,1,400,1m0-1C179.09,0,0,179.09,0,400s179.09,400,400,400,400-179.09,400-400S620.91,0,400,0h0Z"/><g id="Layer_1-2"><path class="cls-3" d="m519.64,487.32l5.74,3.81c8.48,5.66,18.42,8.68,28.6,8.68h103.51c10.61,0,20.94-3.26,29.62-9.35l77.82-54.56c12.14-8.48,16.46-24.43,10.29-37.91l-52.24-114.27-51.07-51.07-43.48-10.88c-11.59-2.91-23.77,1.81-30.4,11.75l-11.35,17.05c-.75,1.14-1.3,2.4-1.53,3.73l-1.96,9.82c-.9,4.6,1.34,9.23,5.54,11.35l11.35,5.66c3.18,1.61,6.95,1.45,10.02-.39l9.9-5.93c3.02-1.81,6.72-1.96,9.9-.43l7.42,3.61c4.2,2.04,9.27,1.02,12.37-2.51h0c3.65-4.2,9.98-4.75,14.34-1.26l11.86,9.51,6.8,81.71c.67,8.25,3.42,16.18,7.97,23.1h0c1.77,2.67-1.06,5.97-3.97,4.67l-19.17-8.48c-9.55-4.24-20.54-3.54-29.5,1.81l-15.99,9.58c-5.46,3.26-12.33,2.87-17.36-1.06l-20.94-16.3c-3.97-3.1-8.72-5.07-13.75-5.74l-2.95-.39c-12.22-1.61-24.63,1.02-35.12,7.46l-9.27,5.74v4.56c0,22.98-4.24,45.72-12.45,67.17h0c-4.2,10.88-.27,23.25,9.47,29.74v.04Z"/><path class="cls-3" d="m281.36,489.28l-5.74,3.81c-8.48,5.66-18.42,8.68-28.6,8.68h-103.51c-10.61,0-20.94-3.26-29.62-9.35l-77.82-54.56c-12.14-8.48-16.46-24.43-10.29-37.91l52.24-114.27,51.07-51.07,43.48-10.88c11.59-2.91,23.77,1.81,30.4,11.75l11.35,17.05c.75,1.14,1.3,2.4,1.53,3.73l1.96,9.82c.9,4.6-1.34,9.23-5.54,11.35l-11.35,5.66c-3.18,1.61-6.95,1.45-10.02-.39l-9.9-5.93c-3.02-1.81-6.72-1.96-9.9-.43l-7.42,3.61c-4.2,2.04-9.27,1.02-12.37-2.51h0c-3.65-4.2-9.98-4.75-14.34-1.26l-11.86,9.51-6.8,81.71c-.67,8.25-3.42,16.18-7.97,23.1h0c-1.77,2.67,1.06,5.97,3.97,4.67l19.17-8.48c9.55-4.24,20.54-3.54,29.5,1.81l15.99,9.58c5.46,3.26,12.33,2.87,17.36-1.06l20.94-16.3c3.97-3.1,8.72-5.07,13.75-5.74l2.95-.39c12.22-1.61,24.63,1.02,35.12,7.46l9.27,5.74v5.77c0,22.15,4.09,44.11,12.02,64.78l.43,1.14c4.2,10.88.27,23.25-9.47,29.74v.08Z"/><path class="cls-2" d="m402.93,578.37c32.76-30.48,147.15-135.95,121.77-192.48-3.57-7.97-12.57-20.94-27.5-27.5-26.59-11.67-63.01.98-94.28,31.43l-7.86,7.86c-3.93-3.81-7.86-7.42-11.78-10.8-27.58-23.77-55.62-36.53-78.88-26.32-14.93,6.56-23.92,19.52-27.5,27.5-28.75,64.03,104.37,181.36,114.23,190.32,1.02.94,10.76.94,11.78,0Z"/></g></svg>