<svg width="97" height="48" viewBox="0 0 97 48" fill="none" xmlns="http://www.w3.org/2000/svg">
<path d="M63.8069 34.1645L64.5056 34.6288C65.5393 35.3179 66.75 35.6864 67.9895 35.6864H80.5997C81.8918 35.6864 83.1504 35.2892 84.2081 34.5474L93.6884 27.9001C95.1672 26.8664 95.6936 24.9234 94.9423 23.282L88.5774 9.3605L82.356 3.13914L77.0583 1.81352C75.6465 1.45938 74.163 2.03366 73.3542 3.24443L71.9712 5.3214C71.8802 5.46019 71.8132 5.61333 71.7845 5.77604L71.5452 6.97245C71.4352 7.53238 71.708 8.09708 72.22 8.35551L73.6031 9.04464C73.9907 9.24085 74.4501 9.22171 74.8234 8.99679L76.0294 8.27415C76.3979 8.05401 76.8477 8.03487 77.2354 8.22151L78.1399 8.66179C78.6519 8.91064 79.2693 8.78622 79.6473 8.35551C80.0924 7.84344 80.8629 7.77644 81.3941 8.20237L82.8394 9.3605L83.6673 19.3147C83.7487 20.3196 84.0836 21.2863 84.6388 22.1286C84.8541 22.454 84.5096 22.856 84.1554 22.6981L81.82 21.6644C80.6571 21.1476 79.3171 21.2337 78.226 21.8846L76.2783 23.0523C75.613 23.4495 74.7756 23.4016 74.163 22.923L71.6122 20.937C71.1289 20.5589 70.5498 20.3196 69.9373 20.2383L69.5783 20.1904C68.09 19.9942 66.5777 20.3149 65.3 21.0997L64.1706 21.7984V22.3535C64.1706 25.1532 63.6537 27.9241 62.6535 30.537C62.1414 31.8626 62.62 33.3701 63.8069 34.1598V34.1645Z" stroke="white" stroke-width="3" stroke-miterlimit="10"/>
<path d="M33.1931 34.4038L32.4944 34.868C31.4607 35.5571 30.2499 35.9256 29.0104 35.9256H16.4002C15.1081 35.9256 13.8495 35.5284 12.7919 34.7867L3.31149 28.1394C1.83273 27.1057 1.30631 25.1627 2.05765 23.5212L8.42257 9.59975L14.6439 3.3784L19.9416 2.05278C21.3534 1.69864 22.8369 2.27292 23.6457 3.48369L25.0288 5.56066C25.1197 5.69944 25.1867 5.85259 25.2154 6.0153L25.4547 7.21171C25.5648 7.77163 25.292 8.33634 24.7799 8.59477L23.3969 9.2839C23.0092 9.48011 22.5498 9.46097 22.1765 9.23604L20.9705 8.51341C20.602 8.29327 20.1522 8.27413 19.7646 8.46077L18.8601 8.90105C18.348 9.1499 17.7307 9.02548 17.3526 8.59477C16.9075 8.0827 16.137 8.0157 15.6058 8.44163L14.1606 9.59975L13.3326 19.5539C13.2513 20.5589 12.9163 21.5256 12.3612 22.3679C12.1458 22.6933 12.4904 23.0953 12.8445 22.9374L15.1799 21.9037C16.3428 21.3868 17.6828 21.473 18.7739 22.1238L20.7217 23.2915C21.3869 23.6887 22.2244 23.6409 22.8369 23.1623L25.3877 21.1763C25.871 20.7982 26.4501 20.5589 27.0627 20.4775L27.4216 20.4297C28.9099 20.2335 30.4222 20.5541 31.7 21.339L32.8294 22.0377V22.7412C32.8294 25.4403 33.3271 28.1155 34.2938 30.6327L34.3464 30.7715C34.8585 32.0971 34.3799 33.6046 33.1931 34.3942V34.4038Z" stroke="white" stroke-width="3" stroke-miterlimit="10"/>
<path d="M48.8566 45.2578C52.8478 41.5441 66.7836 28.6946 63.6921 21.808C63.2566 20.8365 62.1607 19.2573 60.3421 18.4581C57.1022 17.0367 52.6659 18.5777 48.8566 22.2866L47.8994 23.2437C47.4209 22.7795 46.9423 22.3392 46.4637 21.9277C43.1042 19.0323 39.6873 17.477 36.8541 18.7213C35.0356 19.5205 33.9397 21.0998 33.5042 22.0712C30.0011 29.8719 46.2197 44.1666 47.4209 45.2578C47.5453 45.3726 48.7321 45.3726 48.8566 45.2578Z" stroke="white" stroke-width="4" stroke-miterlimit="10"/>
</svg>
